<svg width="1000" height="1000" viewBox="0 0 1000 1000" fill="none" xmlns="http://www.w3.org/2000/svg">
<rect width="1000" height="1000" fill="#9C7AC9"/>
<path d="M449.836 647.575L449.666 648.56L449.7 648.566L449.735 648.569L449.836 647.575ZM446.732 643.641L447.73 643.704L447.732 643.673V643.641H446.732ZM446.732 573.414H447.732V573.39L447.731 573.365L446.732 573.414ZM449.254 569.588L449.215 568.589L449.055 568.595L448.905 568.651L449.254 569.588ZM482.869 582.338H483.869V582.022L483.688 581.763L482.869 582.338ZM481.869 668.968C481.869 669.52 482.317 669.968 482.869 669.968C483.422 669.968 483.869 669.52 483.869 668.968H481.869ZM483.963 668.418C472.351 650.763 456.586 647.256 449.937 646.58L449.735 648.569C456.02 649.208 471.121 652.534 482.292 669.518L483.963 668.418ZM450.007 646.589C449.338 646.474 448.736 646.115 448.316 645.583L446.746 646.822C447.471 647.741 448.511 648.36 449.666 648.56L450.007 646.589ZM448.316 645.583C447.896 645.05 447.687 644.381 447.73 643.704L445.734 643.577C445.66 644.746 446.02 645.902 446.746 646.822L448.316 645.583ZM447.732 643.641V573.414H445.732V643.641H447.732ZM447.731 573.365C447.701 572.755 447.866 572.15 448.203 571.64L446.533 570.539C445.963 571.404 445.683 572.428 445.733 573.463L447.731 573.365ZM448.203 571.64C448.539 571.129 449.03 570.739 449.603 570.525L448.905 568.651C447.934 569.012 447.103 569.674 446.533 570.539L448.203 571.64ZM449.254 569.588C449.294 570.587 449.293 570.587 449.293 570.587C449.293 570.587 449.293 570.587 449.294 570.587C449.294 570.587 449.295 570.587 449.296 570.587C449.298 570.587 449.301 570.587 449.306 570.587C449.316 570.587 449.332 570.586 449.353 570.585C449.396 570.584 449.46 570.582 449.546 570.581C449.717 570.577 449.973 570.574 450.303 570.574C450.962 570.575 451.92 570.591 453.101 570.653C455.465 570.776 458.713 571.081 462.252 571.806C469.376 573.265 477.463 576.382 482.051 582.913L483.688 581.763C478.652 574.596 469.931 571.338 462.653 569.847C458.992 569.097 455.64 568.782 453.205 568.655C451.987 568.592 450.995 568.575 450.305 568.574C449.96 568.574 449.69 568.577 449.506 568.581C449.413 568.583 449.342 568.585 449.293 568.586C449.269 568.587 449.25 568.588 449.237 568.588C449.23 568.588 449.225 568.589 449.221 568.589C449.219 568.589 449.218 568.589 449.217 568.589C449.216 568.589 449.216 568.589 449.215 568.589C449.215 568.589 449.215 568.589 449.254 569.588ZM481.869 582.338V668.968H483.869V582.338H481.869Z" fill="white"/>
<path d="M483.128 668.968C470.313 651.832 447.454 651.433 438.627 652.036C438.127 652.027 437.634 651.917 437.178 651.711C436.722 651.505 436.313 651.209 435.975 650.84C435.637 650.471 435.378 650.037 435.213 649.564C435.049 649.092 434.982 648.591 435.017 648.092V585.366C434.952 584.391 435.274 583.43 435.914 582.691C436.553 581.953 437.459 581.496 438.433 581.422H446.721" stroke="white" stroke-width="2" stroke-miterlimit="10"/>
<path d="M435.016 593.104H430.63C429.65 593.179 428.74 593.638 428.098 594.381C427.456 595.124 427.134 596.091 427.202 597.071V655.733C427.163 656.244 427.231 656.759 427.404 657.242C427.577 657.725 427.85 658.166 428.205 658.536C428.56 658.907 428.989 659.198 429.465 659.391C429.94 659.584 430.451 659.674 430.964 659.656C440.814 658.578 467.715 656.811 483.116 668.978" stroke="white" stroke-width="2" stroke-miterlimit="10"/>
<path d="M482.502 668.968C493.894 651.648 509.316 648.232 515.815 647.574C516.727 647.417 517.548 646.928 518.121 646.202C518.694 645.476 518.978 644.563 518.919 643.64V573.414C518.958 572.591 518.734 571.778 518.281 571.09C517.828 570.403 517.169 569.877 516.397 569.588C516.397 569.588 488.257 569.588 482.858 582.338" stroke="white" stroke-width="2" stroke-miterlimit="10"/>
<path d="M482.502 668.968C495.295 651.832 518.186 651.433 527.013 651.983C527.513 651.974 528.006 651.863 528.461 651.657C528.917 651.451 529.325 651.155 529.662 650.785C529.999 650.416 530.257 649.982 530.421 649.51C530.584 649.037 530.65 648.537 530.613 648.038V585.313C530.678 584.338 530.356 583.376 529.716 582.638C529.076 581.899 528.171 581.443 527.196 581.368H518.919" stroke="white" stroke-width="2" stroke-miterlimit="10"/>
<path d="M530.667 593.104H534.978C535.953 593.182 536.859 593.64 537.498 594.381C538.138 595.121 538.46 596.084 538.394 597.06V655.722C538.394 658.061 536.659 659.882 534.644 659.645C524.793 658.567 497.892 656.8 482.48 668.968" stroke="white" stroke-width="2" stroke-miterlimit="10"/>
<path d="M595.752 599.484H493.527C491.771 599.484 490.348 600.908 490.348 602.664V686.05C490.348 687.806 491.771 689.229 493.527 689.229H595.752C597.508 689.229 598.931 687.806 598.931 686.05V602.664C598.931 600.908 597.508 599.484 595.752 599.484Z" fill="#9C7AC9"/>
<path d="M513.323 605.665L493.207 671.215C493.021 671.824 493.363 672.469 493.972 672.656L525.139 682.22C525.748 682.407 526.393 682.065 526.58 681.456L546.696 615.906C546.882 615.298 546.54 614.653 545.931 614.466L514.764 604.901C514.155 604.714 513.51 605.056 513.323 605.665Z" fill="#9C7AC9" stroke="white" stroke-width="2" stroke-miterlimit="10"/>
<path d="M506.956 639.577L501.223 658.276C508.487 665.034 505.415 672.589 505.415 672.589L510.534 674.162" fill="#9C7AC9"/>
<path d="M506.956 639.577L501.223 658.276C508.487 665.034 505.415 672.589 505.415 672.589L510.534 674.162" stroke="white" stroke-width="2" stroke-miterlimit="10"/>
<path d="M506.957 639.577L512.701 620.878C522.509 619.358 524.201 611.383 524.201 611.383L529.32 612.956" fill="#9C7AC9"/>
<path d="M506.957 639.577L512.701 620.878C522.509 619.358 524.201 611.383 524.201 611.383L529.32 612.956" stroke="white" stroke-width="2" stroke-miterlimit="10"/>
<path d="M532.651 647.456L526.917 666.155C517.109 667.675 515.417 675.65 515.417 675.65L510.287 674.077" fill="white"/>
<path d="M532.651 647.456L526.917 666.155C517.109 667.675 515.417 675.65 515.417 675.65L510.287 674.077" stroke="white" stroke-width="2" stroke-miterlimit="10"/>
<path d="M532.65 647.455L538.395 628.756C531.12 621.988 534.192 614.444 534.192 614.444L529.072 612.87" fill="#9C7AC9"/>
<path d="M532.65 647.455L538.395 628.756C531.12 621.988 534.192 614.444 534.192 614.444L529.072 612.87" stroke="white" stroke-width="2" stroke-miterlimit="10"/>
<path d="M519.944 652.446C524.855 652.446 528.836 648.465 528.836 643.555C528.836 638.644 524.855 634.663 519.944 634.663C515.034 634.663 511.053 638.644 511.053 643.555C511.053 648.465 515.034 652.446 519.944 652.446Z" fill="#9C7AC9" stroke="white" stroke-width="2" stroke-miterlimit="10"/>
<path d="M514.926 655.237L512.949 661.677C512.845 662.018 513.037 662.38 513.378 662.485L515.418 663.111C515.759 663.215 516.121 663.024 516.226 662.682L518.202 656.243C518.307 655.901 518.115 655.54 517.774 655.435L515.733 654.809C515.392 654.704 515.03 654.896 514.926 655.237Z" fill="white" stroke="white" stroke-width="2" stroke-miterlimit="10"/>
<path d="M524.328 624.634L522.352 631.073C522.247 631.415 522.439 631.776 522.78 631.881L524.82 632.507C525.162 632.612 525.524 632.42 525.628 632.079L527.604 625.639C527.709 625.298 527.517 624.936 527.176 624.831L525.136 624.205C524.794 624.1 524.433 624.292 524.328 624.634Z" fill="white" stroke="white" stroke-width="2" stroke-miterlimit="10"/>
<path d="M536.341 606.982L500.536 665.457C500.203 666 500.374 666.71 500.917 667.043L528.721 684.067C529.264 684.4 529.974 684.229 530.306 683.686L566.112 625.211C566.445 624.668 566.274 623.958 565.731 623.625L537.927 606.6C537.384 606.268 536.674 606.439 536.341 606.982Z" fill="#9C7AC9" stroke="white" stroke-width="2" stroke-miterlimit="10"/>
<path d="M521.754 638.198L511.537 654.882C516.926 663.235 512.033 669.787 512.033 669.787L516.603 672.579" fill="#9C7AC9"/>
<path d="M521.754 638.198L511.537 654.882C516.926 663.235 512.033 669.787 512.033 669.787L516.603 672.579" stroke="white" stroke-width="2" stroke-miterlimit="10"/>
<path d="M521.754 638.198L531.96 621.514C541.843 622.484 545.465 615.177 545.465 615.177L550.034 617.979" fill="#9C7AC9"/>
<path d="M521.754 638.198L531.96 621.514C541.843 622.484 545.465 615.177 545.465 615.177L550.034 617.979" stroke="white" stroke-width="2" stroke-miterlimit="10"/>
<path d="M544.678 652.22L534.461 668.903C524.578 667.933 520.956 675.23 520.956 675.23L516.387 672.438" fill="white"/>
<path d="M544.678 652.22L534.461 668.903C524.578 667.933 520.956 675.23 520.956 675.23L516.387 672.438" stroke="white" stroke-width="2" stroke-miterlimit="10"/>
<path d="M544.678 652.219L554.884 635.536C549.495 627.172 554.388 620.63 554.388 620.63L549.819 617.828" fill="#9C7AC9"/>
<path d="M544.678 652.219L554.884 635.536C549.495 627.172 554.388 620.63 554.388 620.63L549.819 617.828" stroke="white" stroke-width="2" stroke-miterlimit="10"/>
<path d="M533.319 654.17C538.23 654.17 542.211 650.189 542.211 645.278C542.211 640.368 538.23 636.387 533.319 636.387C528.409 636.387 524.428 640.368 524.428 645.278C524.428 650.189 528.409 654.17 533.319 654.17Z" fill="#9C7AC9" stroke="white" stroke-width="2" stroke-miterlimit="10"/>
<path d="M525.562 655.391L522.045 661.136C521.858 661.441 521.954 661.839 522.259 662.025L524.078 663.14C524.383 663.326 524.781 663.23 524.968 662.926L528.485 657.181C528.672 656.877 528.576 656.478 528.271 656.292L526.451 655.178C526.147 654.991 525.749 655.087 525.562 655.391Z" fill="white" stroke="white" stroke-width="2" stroke-miterlimit="10"/>
<path d="M542.275 628.087L538.758 633.831C538.571 634.136 538.667 634.534 538.971 634.72L540.791 635.835C541.096 636.021 541.494 635.926 541.68 635.621L545.198 629.876C545.384 629.572 545.289 629.174 544.984 628.987L543.164 627.873C542.86 627.686 542.462 627.782 542.275 628.087Z" fill="#9C7AC9" stroke="white" stroke-width="2" stroke-miterlimit="10"/>
<path d="M566.676 622.561L509.355 660.186C508.822 660.535 508.674 661.25 509.023 661.782L526.913 689.038C527.263 689.57 527.978 689.718 528.51 689.369L585.832 651.744C586.364 651.395 586.513 650.68 586.163 650.147L568.273 622.892C567.924 622.36 567.209 622.211 566.676 622.561Z" fill="#9C7AC9" stroke="white" stroke-width="2" stroke-miterlimit="10"/>
<path d="M540.14 644.686L523.78 655.463C525.063 665.303 517.885 669.151 517.885 669.151L520.816 673.634" fill="#9C7AC9"/>
<path d="M540.14 644.686L523.78 655.463C525.063 665.303 517.885 669.151 517.885 669.151L520.816 673.634" stroke="white" stroke-width="2" stroke-miterlimit="10"/>
<path d="M540.141 644.686L556.501 633.908C565.015 638.995 571.406 633.908 571.406 633.908L574.349 638.381" fill="#9C7AC9"/>
<path d="M540.141 644.686L556.501 633.908C565.015 638.995 571.406 633.908 571.406 633.908L574.349 638.381" stroke="white" stroke-width="2" stroke-miterlimit="10"/>
<path d="M554.874 667.125L538.514 677.903C529.999 672.816 523.608 677.903 523.608 677.903L520.666 673.419" fill="#9C7AC9"/>
<path d="M554.874 667.125L538.514 677.903C529.999 672.816 523.608 677.903 523.608 677.903L520.666 673.419" stroke="white" stroke-width="2" stroke-miterlimit="10"/>
<path d="M554.873 667.124L571.233 656.347C569.951 646.507 577.129 642.659 577.129 642.659L574.197 638.176" fill="#9C7AC9"/>
<path d="M554.873 667.124L571.233 656.347C569.951 646.507 577.129 642.659 577.129 642.659L574.197 638.176" stroke="white" stroke-width="2" stroke-miterlimit="10"/>
<path d="M547.577 664.916C552.488 664.916 556.468 660.935 556.468 656.024C556.468 651.114 552.488 647.133 547.577 647.133C542.666 647.133 538.686 651.114 538.686 656.024C538.686 660.935 542.666 664.916 547.577 664.916Z" fill="#9C7AC9" stroke="white" stroke-width="2" stroke-miterlimit="10"/>
<path d="M539.547 663.92L533.889 667.625C533.589 667.821 533.505 668.224 533.701 668.524L534.875 670.316C535.071 670.616 535.474 670.7 535.774 670.504L541.432 666.799C541.732 666.602 541.816 666.2 541.62 665.9L540.446 664.108C540.25 663.808 539.847 663.724 539.547 663.92Z" fill="#9C7AC9" stroke="white" stroke-width="2.00808" stroke-miterlimit="10"/>
<path d="M563.039 644.188L557.408 647.884C557.109 648.08 557.026 648.481 557.222 648.78L558.393 650.564C558.589 650.862 558.99 650.946 559.288 650.75L564.92 647.053C565.218 646.857 565.301 646.457 565.105 646.158L563.935 644.374C563.739 644.075 563.338 643.992 563.039 644.188Z" fill="#9C7AC9" stroke="white" stroke-width="2" stroke-miterlimit="10"/>
<path d="M499.995 310H120V640.752H384.567" stroke="white" stroke-width="6" stroke-miterlimit="10"/>
<path d="M499.994 310H880V640.752H615.432" stroke="white" stroke-width="6" stroke-miterlimit="10"/>
<path d="M228.802 500.56C224.908 500.56 221.388 499.893 218.242 498.56C215.148 497.227 212.695 495.307 210.882 492.8C209.068 490.293 208.135 487.333 208.082 483.92H220.082C220.242 486.213 221.042 488.027 222.482 489.36C223.975 490.693 226.002 491.36 228.562 491.36C231.175 491.36 233.228 490.747 234.722 489.52C236.215 488.24 236.962 486.587 236.962 484.56C236.962 482.907 236.455 481.547 235.442 480.48C234.428 479.413 233.148 478.587 231.602 478C230.108 477.36 228.028 476.667 225.362 475.92C221.735 474.853 218.775 473.813 216.482 472.8C214.242 471.733 212.295 470.16 210.642 468.08C209.042 465.947 208.242 463.12 208.242 459.6C208.242 456.293 209.068 453.413 210.722 450.96C212.375 448.507 214.695 446.64 217.682 445.36C220.668 444.027 224.082 443.36 227.922 443.36C233.682 443.36 238.348 444.773 241.922 447.6C245.548 450.373 247.548 454.267 247.922 459.28H235.602C235.495 457.36 234.668 455.787 233.122 454.56C231.628 453.28 229.628 452.64 227.122 452.64C224.935 452.64 223.175 453.2 221.842 454.32C220.562 455.44 219.922 457.067 219.922 459.2C219.922 460.693 220.402 461.947 221.362 462.96C222.375 463.92 223.602 464.72 225.042 465.36C226.535 465.947 228.615 466.64 231.282 467.44C234.908 468.507 237.868 469.573 240.162 470.64C242.455 471.707 244.428 473.307 246.082 475.44C247.735 477.573 248.562 480.373 248.562 483.84C248.562 486.827 247.788 489.6 246.242 492.16C244.695 494.72 242.428 496.773 239.442 498.32C236.455 499.813 232.908 500.56 228.802 500.56ZM312.672 444.16V453.2H297.792V500H286.592V453.2H271.712V444.16H312.672ZM348.283 444.16V478.72C348.283 482.507 349.27 485.413 351.243 487.44C353.217 489.413 355.99 490.4 359.563 490.4C363.19 490.4 365.99 489.413 367.963 487.44C369.937 485.413 370.923 482.507 370.923 478.72V444.16H382.203V478.64C382.203 483.387 381.163 487.413 379.083 490.72C377.057 493.973 374.31 496.427 370.843 498.08C367.43 499.733 363.617 500.56 359.403 500.56C355.243 500.56 351.457 499.733 348.043 498.08C344.683 496.427 342.017 493.973 340.043 490.72C338.07 487.413 337.083 483.387 337.083 478.64V444.16H348.283ZM428.945 444.16C434.811 444.16 439.958 445.307 444.385 447.6C448.865 449.893 452.305 453.173 454.705 457.44C457.158 461.653 458.385 466.56 458.385 472.16C458.385 477.76 457.158 482.667 454.705 486.88C452.305 491.04 448.865 494.267 444.385 496.56C439.958 498.853 434.811 500 428.945 500H409.425V444.16H428.945ZM428.545 490.48C434.411 490.48 438.945 488.88 442.145 485.68C445.345 482.48 446.945 477.973 446.945 472.16C446.945 466.347 445.345 461.813 442.145 458.56C438.945 455.253 434.411 453.6 428.545 453.6H420.625V490.48H428.545ZM527.568 444.16L508.688 480.56V500H497.488V480.56L478.528 444.16H491.168L503.168 469.68L515.088 444.16H527.568ZM600.588 444.16L580.108 500H566.508L546.028 444.16H558.028L573.388 488.56L588.668 444.16H600.588ZM657.943 489.36H635.703L632.023 500H620.263L640.343 444.08H653.383L673.463 500H661.623L657.943 489.36ZM654.903 480.4L646.823 457.04L638.743 480.4H654.903ZM735.368 444.16V453.2H720.488V500H709.288V453.2H694.408V444.16H735.368ZM771.14 453.2V467.2H789.94V476.08H771.14V490.88H792.34V500H759.94V444.08H792.34V453.2H771.14Z" fill="white"/>
</svg>
